<svg width="75" height="69" viewBox="0 0 75 69" fill="none" xmlns="http://www.w3.org/2000/svg">
<path d="M69.6429 0.00012207H5.3404C2.39397 0.00012207 0 2.23338 0 4.9749V64.0253C0 66.7669 2.39397 69.0001 5.3404 69.0001H69.6429C72.5893 69.0001 75 66.7669 75 64.0253V4.9749C75 2.23338 72.5893 0.00012207 69.6429 0.00012207ZM22.6674 59.143H11.5513V26.214H22.6842V59.143H22.6674ZM17.1094 21.7166C13.5435 21.7166 10.6641 19.0521 10.6641 15.787C10.6641 12.5218 13.5435 9.85727 17.1094 9.85727C20.6585 9.85727 23.5547 12.5218 23.5547 15.787C23.5547 19.0675 20.6752 21.7166 17.1094 21.7166ZM64.3359 59.143H53.2199V43.1251C53.2199 39.3055 53.1362 34.3923 47.4442 34.3923C41.6518 34.3923 40.7645 38.5508 40.7645 42.8479V59.143H29.6484V26.214H40.3125V30.7113H40.4632C41.9531 28.1238 45.5859 25.3977 50.9933 25.3977C62.2433 25.3977 64.3359 32.2207 64.3359 41.0921V59.143Z" fill="#2859B7"/>
</svg>
