<svg width="38" height="30" viewBox="0 0 38 30" fill="none" xmlns="http://www.w3.org/2000/svg">
<path d="M20.9287 12.1857C20.9287 14.8748 20.2077 17.3588 18.9933 19.3741L25.1188 26.7969C25.7236 27.5292 25.7236 28.7184 25.1188 29.4508C24.514 30.1831 23.5318 30.1831 22.9269 29.4508L16.8014 22.028C15.137 23.5044 13.0855 24.3714 10.8646 24.3714C5.30522 24.3714 0.800598 18.9172 0.800598 12.1857C0.800598 5.45428 5.30522 0 10.8646 0C16.424 0 20.9287 5.45428 20.9287 12.1857ZM14.7354 10.311C14.7354 7.72152 13.0032 5.62418 10.8646 5.62418C8.72602 5.62418 6.99385 7.72152 6.99385 10.311C6.99385 13.1699 9.24374 16.8491 10.313 18.4309C10.6034 18.8586 11.1259 18.8586 11.4114 18.4309C12.4807 16.8491 14.7306 13.1699 14.7306 10.311H14.7354ZM9.31632 10.311C9.31632 9.81378 9.47944 9.33694 9.76981 8.98536C10.0602 8.63378 10.454 8.43626 10.8646 8.43626C11.2753 8.43626 11.6691 8.63378 11.9594 8.98536C12.2498 9.33694 12.4129 9.81378 12.4129 10.311C12.4129 10.8082 12.2498 11.285 11.9594 11.6366C11.6691 11.9882 11.2753 12.1857 10.8646 12.1857C10.454 12.1857 10.0602 11.9882 9.76981 11.6366C9.47944 11.285 9.31632 10.8082 9.31632 10.311Z" fill="white" fill-opacity="0.75"/>
</svg>
