<svg width="20" height="28" viewBox="0 0 20 28" fill="none" xmlns="http://www.w3.org/2000/svg">
<path d="M6.44112 1.32244C6.14035 0.323463 5.34742 -0.208252 4.58964 0.076403L1.15229 1.36541C0.472635 1.62321 0 2.47181 0 3.43856C0 16.7261 7.83559 27.5 17.4992 27.5C18.2023 27.5 18.8195 26.8501 19.007 25.9156L19.9444 21.1892C20.1515 20.1473 19.7648 19.057 19.0382 18.6435L15.2884 16.4951C14.6517 16.1299 13.9134 16.3823 13.4799 17.1181L11.9018 19.766C9.15194 17.9775 6.92548 14.9161 5.62475 11.135L7.55045 8.97054C8.08558 8.36901 8.26917 7.35929 8.00355 6.48384L6.44112 1.32781V1.32244Z" fill="#F7F2F2"/>
</svg>
