<svg width="50" height="61" viewBox="0 0 50 61" fill="none" xmlns="http://www.w3.org/2000/svg">
<path d="M25.0056 14.6517C17.9113 14.6517 12.1891 21.5363 12.1891 30.0715C12.1891 38.6068 17.9113 45.4914 25.0056 45.4914C32.0998 45.4914 37.8221 38.6068 37.8221 30.0715C37.8221 21.5363 32.0998 14.6517 25.0056 14.6517ZM25.0056 40.0965C20.4211 40.0965 16.6732 35.6007 16.6732 30.0715C16.6732 24.5424 20.4099 20.0466 25.0056 20.0466C29.6012 20.0466 33.338 24.5424 33.338 30.0715C33.338 35.6007 29.5901 40.0965 25.0056 40.0965ZM41.3358 14.0209C41.3358 16.0205 39.9972 17.6176 38.3463 17.6176C36.6843 17.6176 35.3569 16.0071 35.3569 14.0209C35.3569 12.0347 36.6955 10.4243 38.3463 10.4243C39.9972 10.4243 41.3358 12.0347 41.3358 14.0209ZM49.8243 17.6712C49.6347 12.8534 48.72 8.58573 45.7864 5.06962C42.8639 1.55352 39.3168 0.453055 35.3123 0.211491C31.1852 -0.0703342 18.8148 -0.0703342 14.6877 0.211491C10.6944 0.439635 7.14724 1.5401 4.21361 5.0562C1.27998 8.57231 0.376464 12.8399 0.175683 17.6578C-0.0585611 22.6233 -0.0585611 37.5064 0.175683 42.4718C0.36531 47.2897 1.27998 51.5574 4.21361 55.0735C7.14724 58.5896 10.6832 59.69 14.6877 59.9316C18.8148 60.2134 31.1852 60.2134 35.3123 59.9316C39.3168 59.7035 42.8639 58.603 45.7864 55.0735C48.7089 51.5574 49.6235 47.2897 49.8243 42.4718C50.0586 37.5064 50.0586 22.6367 49.8243 17.6712ZM44.4925 47.7997C43.6224 50.4301 41.9381 52.4565 39.7407 53.5167C36.4501 55.0869 28.6419 54.7245 25.0056 54.7245C21.3692 54.7245 13.5499 55.0735 10.2705 53.5167C8.08422 52.4699 6.39989 50.4435 5.51868 47.7997C4.21361 43.8407 4.51478 34.4465 4.51478 30.0715C4.51478 25.6965 4.22476 16.2889 5.51868 12.3434C6.38873 9.71303 8.07306 7.68657 10.2705 6.62637C13.5611 5.0562 21.3692 5.41855 25.0056 5.41855C28.6419 5.41855 36.4612 5.06962 39.7407 6.62637C41.9269 7.67315 43.6113 9.69961 44.4925 12.3434C45.7975 16.3024 45.4964 25.6965 45.4964 30.0715C45.4964 34.4465 45.7975 43.8541 44.4925 47.7997Z" fill="#962FBF"/>
</svg>
