<svg width="50" height="61" viewBox="0 0 50 61" fill="none" xmlns="http://www.w3.org/2000/svg">
<path d="M25.0056 14.6516C17.9113 14.6516 12.1891 21.5361 12.1891 30.0714C12.1891 38.6067 17.9113 45.4913 25.0056 45.4913C32.0998 45.4913 37.8221 38.6067 37.8221 30.0714C37.8221 21.5361 32.0998 14.6516 25.0056 14.6516ZM25.0056 40.0963C20.4211 40.0963 16.6732 35.6006 16.6732 30.0714C16.6732 24.5423 20.4099 20.0465 25.0056 20.0465C29.6012 20.0465 33.338 24.5423 33.338 30.0714C33.338 35.6006 29.5901 40.0963 25.0056 40.0963ZM41.3358 14.0208C41.3358 16.0204 39.9972 17.6174 38.3463 17.6174C36.6843 17.6174 35.3569 16.007 35.3569 14.0208C35.3569 12.0346 36.6955 10.4242 38.3463 10.4242C39.9972 10.4242 41.3358 12.0346 41.3358 14.0208ZM49.8243 17.6711C49.6347 12.8532 48.72 8.5856 45.7864 5.0695C42.8639 1.55339 39.3168 0.452933 35.3123 0.211369C31.1852 -0.0704563 18.8148 -0.0704563 14.6877 0.211369C10.6944 0.439513 7.14724 1.53997 4.21361 5.05608C1.27998 8.57218 0.376464 12.8398 0.175683 17.6577C-0.0585611 22.6232 -0.0585611 37.5062 0.175683 42.4717C0.36531 47.2896 1.27998 51.5572 4.21361 55.0733C7.14724 58.5894 10.6832 59.6899 14.6877 59.9315C18.8148 60.2133 31.1852 60.2133 35.3123 59.9315C39.3168 59.7033 42.8639 58.6029 45.7864 55.0733C48.7089 51.5572 49.6235 47.2896 49.8243 42.4717C50.0586 37.5062 50.0586 22.6366 49.8243 17.6711ZM44.4925 47.7996C43.6224 50.4299 41.9381 52.4564 39.7407 53.5166C36.4501 55.0868 28.6419 54.7244 25.0056 54.7244C21.3692 54.7244 13.5499 55.0733 10.2705 53.5166C8.08422 52.4698 6.39989 50.4434 5.51868 47.7996C4.21361 43.8406 4.51478 34.4464 4.51478 30.0714C4.51478 25.6964 4.22476 16.2888 5.51868 12.3433C6.38873 9.71291 8.07306 7.68645 10.2705 6.62625C13.5611 5.05608 21.3692 5.41842 25.0056 5.41842C28.6419 5.41842 36.4612 5.0695 39.7407 6.62625C41.9269 7.67303 43.6113 9.69948 44.4925 12.3433C45.7975 16.3022 45.4964 25.6964 45.4964 30.0714C45.4964 34.4464 45.7975 43.854 44.4925 47.7996Z" fill="#962FBF"/>
</svg>
