<svg width="50" height="56" viewBox="0 0 50 56" fill="none" xmlns="http://www.w3.org/2000/svg">
<path d="M44.8605 13.9159C44.8923 14.5266 44.8923 15.1374 44.8923 15.7481C44.8923 34.3751 34.5814 55.8378 15.7361 55.8378C9.93021 55.8378 4.53683 53.5257 0 49.5125C0.824906 49.6433 1.61798 49.687 2.47462 49.687C7.26517 49.687 11.6751 47.4623 15.1967 43.667C10.6916 43.5361 6.91624 39.4792 5.61545 33.8954C6.25002 34.0261 6.8845 34.1134 7.55081 34.1134C8.47083 34.1134 9.39096 33.9389 10.2475 33.6336C5.55207 32.3248 2.03038 26.6539 2.03038 19.805V19.6306C3.39454 20.6776 4.98098 21.3319 6.66233 21.4191C3.90216 18.8889 2.09386 14.5702 2.09386 9.68438C2.09386 7.06703 2.60138 4.66776 3.48976 2.57383C8.53421 11.124 16.1168 16.7076 24.6192 17.3185C24.4606 16.2715 24.3654 15.181 24.3654 14.0904C24.3654 6.32542 28.934 0.00012207 34.6129 0.00012207C37.5634 0.00012207 40.2284 1.70142 42.1003 4.44969C44.4162 3.83899 46.637 2.66111 48.6041 1.04709C47.8426 4.3189 46.2246 7.06717 44.099 8.81197C46.1612 8.50676 48.16 7.72137 50 6.6309C48.6043 9.42267 46.8593 11.9091 44.8605 13.9159Z" fill="#69B1E6"/>
</svg>
