<svg width="78" height="50" viewBox="0 0 78 50" fill="none" xmlns="http://www.w3.org/2000/svg">
<path d="M76.1165 7.82331C75.2224 4.74388 72.5881 2.31862 69.2434 1.49557C63.1808 0 38.8705 0 38.8705 0C38.8705 0 14.5603 0 8.49759 1.49557C5.15285 2.31875 2.51856 4.74388 1.62447 7.82331C0 13.4049 0 25.0505 0 25.0505C0 25.0505 0 36.6961 1.62447 42.2777C2.51856 45.3572 5.15285 47.6814 8.49759 48.5044C14.5603 50 38.8705 50 38.8705 50C38.8705 50 63.1806 50 69.2434 48.5044C72.5881 47.6814 75.2224 45.3572 76.1165 42.2777C77.741 36.6961 77.741 25.0505 77.741 25.0505C77.741 25.0505 77.741 13.4049 76.1165 7.82331ZM30.9197 35.6238V14.4772L51.2382 25.0508L30.9197 35.6238Z" fill="#F72828"/>
</svg>
