<svg width="75" height="69" viewBox="0 0 75 69" fill="none" xmlns="http://www.w3.org/2000/svg">
<path d="M69.6429 0H5.3404C2.39397 0 0 2.23326 0 4.97478V64.0252C0 66.7667 2.39397 69 5.3404 69H69.6429C72.5893 69 75 66.7667 75 64.0252V4.97478C75 2.23326 72.5893 0 69.6429 0ZM22.6674 59.1429H11.5513V26.2138H22.6842V59.1429H22.6674ZM17.1094 21.7165C13.5435 21.7165 10.6641 19.052 10.6641 15.7868C10.6641 12.5217 13.5435 9.85714 17.1094 9.85714C20.6585 9.85714 23.5547 12.5217 23.5547 15.7868C23.5547 19.0674 20.6752 21.7165 17.1094 21.7165ZM64.3359 59.1429H53.2199V43.125C53.2199 39.3054 53.1362 34.3922 47.4442 34.3922C41.6518 34.3922 40.7645 38.5507 40.7645 42.8478V59.1429H29.6484V26.2138H40.3125V30.7112H40.4632C41.9531 28.1237 45.5859 25.3975 50.9933 25.3975C62.2433 25.3975 64.3359 32.2205 64.3359 41.092V59.1429Z" fill="#2859B7"/>
</svg>
