<svg width="38" height="30" viewBox="0 0 38 30" fill="none" xmlns="http://www.w3.org/2000/svg">
<path d="M20.9286 12.1857C20.9286 14.8748 20.2077 17.3588 18.9932 19.3741L25.1187 26.7969C25.7235 27.5292 25.7235 28.7184 25.1187 29.4508C24.5139 30.1831 23.5317 30.1831 22.9269 29.4508L16.8014 22.028C15.1369 23.5044 13.0854 24.3714 10.8646 24.3714C5.30516 24.3714 0.800537 18.9172 0.800537 12.1857C0.800537 5.45428 5.30516 0 10.8646 0C16.424 0 20.9286 5.45428 20.9286 12.1857ZM14.7353 10.311C14.7353 7.72152 13.0032 5.62418 10.8646 5.62418C8.72596 5.62418 6.99379 7.72152 6.99379 10.311C6.99379 13.1699 9.24368 16.8491 10.313 18.4309C10.6033 18.8586 11.1258 18.8586 11.4113 18.4309C12.4806 16.8491 14.7305 13.1699 14.7305 10.311H14.7353ZM9.31625 10.311C9.31625 9.81378 9.47938 9.33694 9.76974 8.98536C10.0601 8.63378 10.4539 8.43626 10.8646 8.43626C11.2752 8.43626 11.669 8.63378 11.9594 8.98536C12.2498 9.33694 12.4129 9.81378 12.4129 10.311C12.4129 10.8082 12.2498 11.285 11.9594 11.6366C11.669 11.9882 11.2752 12.1857 10.8646 12.1857C10.4539 12.1857 10.0601 11.9882 9.76974 11.6366C9.47938 11.285 9.31625 10.8082 9.31625 10.311Z" fill="white" fill-opacity="0.75"/>
</svg>
