<svg width="20" height="28" viewBox="0 0 20 28" fill="none" xmlns="http://www.w3.org/2000/svg">
<path d="M6.44111 1.32253C6.14034 0.323554 5.34741 -0.208161 4.58963 0.0764946L1.15228 1.3655C0.47262 1.6233 -1.52588e-05 2.4719 -1.52588e-05 3.43865C-1.52588e-05 16.7262 7.83558 27.5001 17.4992 27.5001C18.2023 27.5001 18.8195 26.8502 19.007 25.9157L19.9444 21.1893C20.1514 20.1474 19.7647 19.0571 19.0382 18.6435L15.2884 16.4952C14.6517 16.13 13.9134 16.3824 13.4799 17.1182L11.9018 19.7661C9.15193 17.9776 6.92546 14.9162 5.62474 11.1351L7.55043 8.97063C8.08557 8.3691 8.26915 7.35938 8.00354 6.48393L6.44111 1.3279V1.32253Z" fill="#F7F2F2"/>
</svg>
