<svg width="50" height="56" viewBox="0 0 50 56" fill="none" xmlns="http://www.w3.org/2000/svg">
<path d="M44.8605 13.9158C44.8923 14.5265 44.8923 15.1373 44.8923 15.748C44.8923 34.375 34.5814 55.8377 15.7361 55.8377C9.93021 55.8377 4.53683 53.5256 0 49.5124C0.824906 49.6432 1.61798 49.6868 2.47462 49.6868C7.26517 49.6868 11.6751 47.4621 15.1967 43.6669C10.6916 43.536 6.91624 39.479 5.61545 33.8952C6.25002 34.026 6.8845 34.1133 7.55081 34.1133C8.47083 34.1133 9.39096 33.9387 10.2475 33.6335C5.55207 32.3247 2.03038 26.6538 2.03038 19.8049V19.6305C3.39454 20.6775 4.98098 21.3318 6.66233 21.4189C3.90216 18.8887 2.09386 14.5701 2.09386 9.68426C2.09386 7.06691 2.60138 4.66763 3.48976 2.5737C8.53421 11.1238 16.1168 16.7075 24.6192 17.3184C24.4606 16.2714 24.3654 15.1809 24.3654 14.0903C24.3654 6.3253 28.934 0 34.6129 0C37.5634 0 40.2284 1.7013 42.1003 4.44957C44.4162 3.83887 46.637 2.66099 48.6041 1.04696C47.8426 4.31878 46.2246 7.06705 44.099 8.81185C46.1612 8.50664 48.16 7.72125 50 6.63078C48.6043 9.42255 46.8593 11.909 44.8605 13.9158Z" fill="#69B1E6"/>
</svg>
